{"accessors":[{"bufferView":2,"componentType":5126,"count":2447,"max":[1.145207405090332,1.7810096740722656,1.1452326774597168],"min":[-1.1456834077835083,-0.9952466487884521,-1.1456844806671143],"type":"VEC3"},{"bufferView":2,"byteOffset":29364,"componentType":5126,"count":2447,"max":[0.9999474287033081,1,0.9999474287033081],"min":[-0.9999474883079529,-1,-0.9999474883079529],"type":"VEC3"},{"bufferView":3,"componentType":5126,"count":2447,"max":[0.9703404307365417,0.9553632736206055,0.9763185381889343,1],"min":[-0.9892180562019348,-0.9999474883079529,-0.9956668019294739,1],"type":"VEC4"},{"bufferView":1,"componentType":5126,"count":2447,"max":[0.9668050408363342,0.970703125],"min":[0.029296875,0.029296875],"type":"VEC2"},{"bufferView":0,"componentType":5125,"count":12720,"max":[2446],"min":[0],"type":"SCALAR"}],"asset":{"extras":{"author":"Phillip Stephens (https://sketchfab.com/pstephen)","license":"CC-BY-4.0 (http://creativecommons.org/licenses/by/4.0/)","source":"https://sketchfab.com/models/d05cd9f3d4d940e0b298f5cb1895f913","title":"Beaker"},"generator":"Sketchfab-3.43.2","version":"2.0"},"bufferViews":[{"buffer":0,"byteLength":50880,"byteOffset":0,"name":"floatBufferViews","target":34963},{"buffer":0,"byteLength":19576,"byteOffset":50880,"byteStride":8,"name":"floatBufferViews","target":34962},{"buffer":0,"byteLength":58728,"byteOffset":70456,"byteStride":12,"name":"floatBufferViews","target":34962},{"buffer":0,"byteLength":39152,"byteOffset":129184,"byteStride":16,"name":"floatBufferViews","target":34962}],"buffers":[{"byteLength":168336,"uri":"data:application/octet-stream;base64,"}],"images":[{"uri":"data:application/octet-stream;base64,"},{"uri":"data:application/octet-stream;base64,"},{"uri":"data:application/octet-stream;base64,"}],"materials":[{"alphaMode":"BLEND","doubleSided":true,"emissiveFactor":[0,0,0],"name":"lambert1","normalTexture":{"index":1,"scale":1,"texCoord":0},"occlusionTexture":{"index":2,"strength":1,"texCoord":0},"pbrMetallicRoughness":{"baseColorFactor":[1,1,1,1],"baseColorTexture":{"index":0,"texCoord":0},"metallicFactor":1,"metallicRoughnessTexture":{"index":2,"texCoord":0},"roughnessFactor":1}}],"meshes":[{"name":"Beaker_lambert1_0","primitives":[{"attributes":{"NORMAL":1,"POSITION":0,"TANGENT":2,"TEXCOORD_0":3},"indices":4,"material":0,"mode":4}]}],"nodes":[{"children":[1],"name":"RootNode (gltf orientation matrix)","rotation":[-0.7071067811865475,0,0,0.7071067811865476]},{"children":[2],"matrix":[1,0,0,0,0,-1,0,0,0,0,-1,0,0,-0.00043940541218034923,-3.1773502826690674,1],"name":"RootNode (model correction matrix)"},{"children":[3],"matrix":[1,0,0,0,0,-1,0,0,0,0,-1,0,0,0,0,1],"name":"b7c200f3308d46dfa6fb3e105de7d3f8.fbx"},{"children":[4],"name":"RootNode"},{"children":[5],"matrix":[1,0,0,0,0,2.220446049250313e-16,1,0,0,-1,2.220446049250313e-16,0,0,0,1.1957874298095703,1],"name":"Beaker"},{"mesh":0,"name":"Beaker_lambert1_0"}],"samplers":[{"magFilter":9729,"minFilter":9987,"wrapS":10497,"wrapT":10497}],"scene":0,"scenes":[{"name":"OSG_Scene","nodes":[0]}],"textures":[{"sampler":0,"source":0},{"sampler":0,"source":1},{"sampler":0,"source":2}]}